/vscmnt/brussel_pixiu_data/_data_brussel/112/vsc11236/PredSimResults/SUBJ10mtu3D/worker4.mot
version=1
nRows=7
nColumns=50
inDegrees=yes
endheader
                time	         pelvis_tilt	         pelvis_list	     pelvis_rotation	           pelvis_tx	           pelvis_ty	           pelvis_tz	       hip_flexion_r	     hip_adduction_r	      hip_rotation_r	        knee_angle_r	       ankle_angle_r	         mtp_angle_r	       hip_flexion_l	     hip_adduction_l	      hip_rotation_l	        knee_angle_l	       ankle_angle_l	         mtp_angle_l	    lumbar_extension	      lumbar_bending	     lumbar_rotation	 ercspn_r/activation	 intobl_r/activation	 extobl_r/activation	    abd_r/activation	    add_r/activation	hamstrings_r/activation	bifemsh_r/activation	glut_max_r/activation	iliopsoas_r/activation	rect_fem_r/activation	  vasti_r/activation	gastroc_r/activation	 soleus_r/activation	tib_ant_r/activation	 ercspn_l/activation	 intobl_l/activation	 extobl_l/activation	    abd_l/activation	    add_l/activation	hamstrings_l/activation	bifemsh_l/activation	glut_max_l/activation	iliopsoas_l/activation	rect_fem_l/activation	  vasti_l/activation	gastroc_l/activation	 soleus_l/activation	tib_ant_l/activation	
          0.55007622	         -4.52686523	          0.32438183	         -7.78436083	          0.66559222	          0.82225609	          0.01299072	        -16.30969909	          0.13374439	          0.51732139	         -5.28212779	          7.48196920	         26.83521312	         30.45218060	         -2.04473946	         -6.35545800	         -5.96023505	          2.13963537	          0.27825903	         -7.23294309	          1.22230629	          5.42117195	          0.10294048	          0.01000065	          0.01000137	          0.05133574	          0.01000593	          0.01560478	          0.20005536	          0.01001123	          0.25668066	          0.01001452	          0.01000170	          0.28945674	          0.24776704	          0.02269856	          0.10690611	          0.16436616	          0.01000330	          0.01000022	          0.13941448	          0.10695214	          0.24517083	          0.04438206	          0.10560782	          0.01000640	          0.01000071	          0.01956212	          0.01219364	          0.27425221	
          0.56107774	         -4.55548720	          0.30593102	         -7.85884015	          0.68100509	          0.82097241	          0.01290220	        -16.47208991	          0.02212945	          0.19654615	         -6.83228498	          6.77168045	         28.41489600	         30.35635563	         -1.93738257	         -5.94835920	         -7.62827068	          1.70593675	          0.26275072	         -7.05892281	          0.78706064	          5.68108355	          0.11396004	          0.01000043	          0.01000361	          0.04338144	          0.01004910	          0.01400316	          0.16905765	          0.01000423	          0.21690911	          0.01000261	          0.01000143	          0.25183016	          0.23756017	          0.01918156	          0.09034173	          0.13889867	          0.01000175	          0.02076467	          0.11781312	          0.09493756	          0.20720120	          0.08356321	          0.08924424	          0.01000110	          0.01000038	          0.01653129	          0.01030457	          0.37538821	
          0.57207927	         -4.57726429	          0.29675522	         -7.88665091	          0.69658038	          0.81997944	          0.01269874	        -16.48271846	         -0.10267567	         -0.16089696	         -8.66201227	          5.93845296	         29.92048748	         30.15059955	         -1.82542846	         -5.60677836	         -9.07676994	          1.12698177	          0.25165836	         -6.87976815	          0.34059853	          5.91694844	          0.12348680	          0.01000034	          0.01000123	          0.03665963	          0.01000252	          0.01187762	          0.14286291	          0.01000313	          0.18330000	          0.01001944	          0.01000433	          0.21280993	          0.22341780	          0.01620952	          0.10370638	          0.11737686	          0.01000177	          0.06768049	          0.12316932	          0.08125745	          0.17509776	          0.09838205	          0.07541615	          0.01000136	          0.01000058	          0.01397002	          0.01000040	          0.46193204	
          0.58308079	         -4.59247550	          0.28083145	         -7.87118162	          0.71214240	          0.81938624	          0.01238521	        -16.27805009	         -0.22465981	         -0.55827096	        -10.85670185	          4.98238968	         31.26421412	         29.92270100	         -1.71104936	         -5.34790729	        -10.48589985	          0.55711144	          0.23531328	         -6.71628820	         -0.09856549	          6.12635683	          0.15977176	          0.01000047	          0.01000116	          0.03097934	          0.01019020	          0.02273073	          0.12072698	          0.01183236	          0.15489848	          0.01001086	          0.01243793	          0.17983561	          0.20624893	          0.01369802	          0.11063618	          0.09918972	          0.01000177	          0.11043770	          0.17158920	          0.07157683	          0.14796777	          0.11026511	          0.06373068	          0.01000149	          0.01000066	          0.01180575	          0.01000049	          0.50753986	
          0.59408232	         -4.60040460	          0.26034301	         -7.81848191	          0.72760282	          0.81926135	          0.01196835	        -15.82434713	         -0.35040536	         -1.00181964	        -13.45582818	          3.91635548	         32.30364442	         29.71254121	         -1.59260324	         -5.14607668	        -11.96138085	          0.18703266	          0.21759555	         -6.57232722	         -0.52906849	          6.31111901	          0.18837856	          0.01000052	          0.01000110	          0.02617920	          0.05208570	          0.02831246	          0.10202098	          0.01000432	          0.13089769	          0.01000619	          0.01051910	          0.15197055	          0.18635959	          0.01157580	          0.11711282	          0.08382060	          0.01000167	          0.14694872	          0.21922403	          0.06105705	          0.12504123	          0.12870771	          0.05385585	          0.01000195	          0.01000312	          0.01000142	          0.01000088	          0.49503726	
          0.60508384	         -4.60119302	          0.23302216	         -7.73037882	          0.74286694	          0.81967610	          0.01146191	        -15.07281551	         -0.48187207	         -1.50440034	        -16.52413006	          2.75838772	         32.86411260	         29.53635738	         -1.47617953	         -4.99034945	        -13.53298124	          0.10159484	          0.20074570	         -6.45272142	         -0.94623157	          6.47037952	          0.21012539	          0.01000060	          0.01000107	          0.02212282	          0.11613108	          0.02475697	          0.08621350	          0.01000098	          0.11061575	          0.01000384	          0.01000215	          0.12842310	          0.15748456	          0.01000072	          0.12133621	          0.07083288	          0.01000156	          0.16903767	          0.26146610	          0.05723963	          0.10566710	          0.13288141	          0.04551109	          0.01000194	          0.02766575	          0.01000143	          0.01000069	          0.46578622	
          0.61608536	         -4.59575645	          0.19402501	         -7.60803250	          0.75789599	          0.82065700	          0.01088723	        -13.99397962	         -0.62293857	         -2.08113536	        -20.09359365	          1.50375456	         32.78032098	         29.34620646	         -1.36193327	         -4.86044203	        -15.10574027	          0.30348951	          0.18875923	         -6.35614624	         -1.34387954	          6.60271374	          0.21685567	          0.01000073	          0.01000112	          0.01869497	          0.17929529	          0.02211145	          0.07285548	          0.01000068	          0.09347644	          0.01000301	          0.01000107	          0.10852427	          0.13308280	          0.01000068	          0.12137243	          0.05985757	          0.01000161	          0.17887963	          0.28750174	          0.05571613	          0.08929500	          0.12737623	          0.03845932	          0.01000171	          0.04392010	          0.01000100	          0.01000045	          0.40769776	
